<?xml version="1.0" encoding="UTF-8" standalone="no"?>
<svg
   xmlns:dc="http://purl.org/dc/elements/1.1/"
   xmlns:cc="http://creativecommons.org/ns#"
   xmlns:rdf="http://www.w3.org/1999/02/22-rdf-syntax-ns#"
   xmlns:svg="http://www.w3.org/2000/svg"
   xmlns="http://www.w3.org/2000/svg"
   version="1.1"
   id="svg2"
   viewBox="0 0 23.999999 23.999999"
   height="6.7733335mm"
   width="6.7733335mm">
  <defs
     id="defs4" />
  <metadata
     id="metadata7">
    <rdf:RDF>
      <cc:Work
         rdf:about="">
        <dc:format>image/svg+xml</dc:format>
        <dc:type
           rdf:resource="http://purl.org/dc/dcmitype/StillImage" />
        <dc:title></dc:title>
      </cc:Work>
    </rdf:RDF>
  </metadata>
  <g
     transform="translate(-108.57143,-568.36221)"
     id="layer1">
    <path
       style="fill: white;"
       d="m 108.57143,580.36221 0,-12 12,0 12,0 0,12 0,12 -12,0 -12,0 0,-12 z m 9.78,8.0604 c 0.94479,-0.25091 1.36235,-0.5546 1.67351,-1.21719 l 0.15649,-0.33321 0,-2.7 c 0,-2.51253 -0.008,-2.72708 -0.118,-3.09 -0.0942,-0.31134 -0.18115,-0.45354 -0.43109,-0.705 -0.17219,-0.17325 -0.29095,-0.315 -0.2639,-0.315 0.12058,0 0.5574,-0.54038 0.67903,-0.84 0.13047,-0.32141 0.13396,-0.38935 0.13396,-2.61 0,-2.4881 -0.0128,-2.60002 -0.36073,-3.15117 -0.73494,-1.16421 -2.63348,-1.52006 -6.20927,-1.16383 -1.32908,0.13241 -1.46419,0.15148 -1.545,0.21797 -0.0593,0.0488 -0.075,1.71618 -0.075,7.96947 0,4.34926 0.0172,7.95246 0.0381,8.00712 0.035,0.0911 0.28147,0.0973 2.955,0.0749 2.6756,-0.0225 2.95409,-0.0344 3.36687,-0.14402 z m -3.06,-4.39022 0,-2.4079 0.15357,-0.0385 c 0.19194,-0.0482 0.95299,0.0236 1.13641,0.10716 0.2875,0.131 0.30002,0.22974 0.30002,2.36699 l 0,1.99946 -0.15411,0.15407 c -0.14027,0.14023 -0.21166,0.15733 -0.795,0.19036 l -0.64089,0.0363 0,-2.4079 z m -0.0136,-7.03645 c -0.009,-1.33305 0.005,-2.47098 0.0308,-2.52873 0.0392,-0.0873 0.12791,-0.105 0.52693,-0.105 0.59573,0 0.846,0.0958 0.96062,0.36762 0.11844,0.28088 0.12574,4.09165 0.008,4.29738 -0.14156,0.24782 -0.33696,0.32247 -0.93802,0.35833 l -0.57216,0.0341 -0.0164,-2.42374 z m 11.68365,11.43909 c 1.08377,-0.24215 1.7937,-0.76145 2.05447,-1.50282 0.0912,-0.25932 0.10553,-0.53191 0.10553,-2.01 l 0,-1.71 -1.43598,0.0207 c -0.78979,0.0114 -1.49854,0.0444 -1.575,0.0735 l -0.13902,0.0529 -1.2e-4,1.27648 c -1.2e-4,1.48567 -0.0387,1.64059 -0.44138,1.77206 -0.27006,0.0882 -0.62118,0.0193 -0.77642,-0.15219 -0.2063,-0.22797 -0.22669,-0.82848 -0.20921,-6.16338 0.0168,-5.13096 0.0192,-5.22356 0.13955,-5.42844 0.27118,-0.4616 0.93241,-0.46247 1.16756,-0.002 0.10835,0.21237 0.11999,0.35364 0.11999,1.45559 0,0.84376 0.0214,1.24181 0.0694,1.28979 0.0458,0.0458 0.22434,0.0597 0.525,0.0408 0.25058,-0.0158 0.91343,-0.0558 1.473,-0.0889 0.67901,-0.0402 1.03292,-0.0847 1.06408,-0.13376 0.0702,-0.11042 0.0579,-2.30639 -0.0159,-2.84414 -0.0827,-0.60294 -0.24314,-0.92803 -0.6654,-1.34812 -0.39027,-0.38826 -0.95808,-0.64273 -1.73019,-0.77539 -0.64643,-0.11107 -2.30728,-0.0991 -2.95737,0.0213 -0.9678,0.17925 -1.7521,0.70656 -2.04762,1.37667 -0.27927,0.6333 -0.28476,0.78109 -0.26428,7.1262 l 0.0193,5.97 0.18742,0.39554 c 0.37682,0.79525 1.09447,1.22261 2.30258,1.37118 0.65729,0.0808 2.52409,0.0291 3.03,-0.0839 z"
       id="path4203" />
  </g>
</svg>
